<svg xmlns="http://www.w3.org/2000/svg" id="svg" version="1.1" width="100%" height="100%" viewBox="0 0 1280 489"><path d="M414.356 19.092 C 389.353 22.008,355.400 35.865,311.500 61.071 C 284.135 76.782,264.115 90.306,240.500 109.032 C 213.506 130.437,181.914 159.902,156.590 187.294 C 151.140 193.190,146.524 197.858,146.334 197.667 C 145.909 197.243,154.268 174.102,165.719 144.000 C 170.426 131.625,176.683 114.632,179.624 106.238 C 182.564 97.844,185.601 89.969,186.373 88.738 C 187.144 87.507,188.537 81.325,189.467 75.000 C 190.397 68.675,191.391 62.510,191.675 61.300 C 192.347 58.437,188.014 54.000,184.545 54.000 C 180.419 54.000,178.337 57.069,176.985 65.141 C 174.578 79.517,167.398 100.583,140.224 173.000 C 133.104 191.975,125.609 212.254,123.568 218.065 C 120.044 228.099,119.253 229.382,107.830 243.565 C 101.215 251.779,95.397 258.650,94.901 258.833 C 94.405 259.017,94.000 257.793,94.000 256.114 C 94.000 254.434,92.219 226.384,90.041 193.780 C 84.399 109.289,83.660 93.834,84.251 72.813 C 84.846 51.677,84.433 50.000,78.634 50.000 C 73.256 50.000,71.724 51.898,70.867 59.622 C 68.793 78.291,69.530 94.948,78.335 228.456 L 81.564 277.412 77.312 283.456 C 70.260 293.479,53.698 319.843,47.690 330.606 C 17.539 384.623,10.571 437.382,30.412 461.430 C 34.752 466.690,43.326 471.800,51.787 474.169 C 78.134 481.546,128.017 469.007,184.237 440.874 C 191.792 437.093,198.361 434.000,198.836 434.000 C 199.310 434.000,201.850 438.612,204.480 444.250 C 207.110 449.887,209.947 455.288,210.786 456.250 C 212.666 458.408,218.305 458.552,220.363 456.494 C 223.624 453.233,223.307 451.082,217.919 439.925 C 215.021 433.925,212.842 428.838,213.075 428.621 C 213.309 428.403,218.675 426.800,225.000 425.058 C 231.325 423.315,239.322 420.928,242.771 419.753 L 249.042 417.615 250.499 419.695 C 251.815 421.574,252.937 421.771,262.126 421.739 C 270.661 421.709,272.595 421.405,274.148 419.852 C 276.631 417.369,276.487 413.487,273.812 410.813 C 272.609 409.609,272.049 408.484,272.567 408.311 C 273.085 408.138,278.762 405.580,285.183 402.625 L 296.858 397.253 299.739 401.876 C 311.470 420.700,354.412 416.636,405.038 391.912 C 412.823 388.110,419.261 385.000,419.346 385.000 C 419.431 385.000,419.350 388.712,419.167 393.250 C 418.872 400.569,419.100 401.895,421.187 405.000 C 422.481 406.925,425.106 409.318,427.020 410.317 C 431.951 412.892,444.885 412.081,455.000 408.562 C 473.616 402.086,507.086 383.469,535.549 363.759 C 543.772 358.065,551.175 353.001,552.000 352.507 C 552.825 352.013,550.779 354.734,547.454 358.555 C 538.902 368.379,535.548 372.864,532.586 378.434 C 529.119 384.955,529.114 390.794,532.573 394.904 C 539.553 403.200,551.278 400.754,584.560 384.062 L 605.620 373.500 607.560 376.463 C 608.627 378.092,611.029 380.455,612.898 381.713 C 622.479 388.162,644.053 381.513,675.711 362.354 C 697.001 349.470,752.681 311.410,776.981 293.132 C 782.196 289.209,786.846 286.000,787.315 286.000 C 787.784 286.000,784.938 289.488,780.990 293.750 C 770.371 305.218,759.152 320.497,755.110 328.995 C 750.801 338.054,750.425 343.306,753.884 346.107 C 757.263 348.843,760.882 348.450,767.059 344.675 C 803.413 322.461,810.475 317.887,851.944 289.690 C 889.626 264.068,913.104 248.771,913.751 249.418 C 914.553 250.220,900.659 268.189,875.415 299.000 C 871.134 304.225,864.706 312.100,861.131 316.500 C 857.555 320.900,849.628 330.350,843.515 337.500 C 829.071 354.393,826.620 357.619,823.007 364.486 C 818.730 372.617,818.848 378.048,823.400 382.600 C 826.527 385.727,827.292 386.000,832.932 386.000 C 840.198 386.000,848.084 383.525,860.257 377.423 C 882.661 366.194,913.003 344.892,1017.500 267.032 C 1088.812 213.898,1096.116 208.643,1117.000 195.441 C 1156.886 170.226,1206.327 145.185,1244.127 131.053 C 1250.303 128.744,1253.126 127.134,1254.061 125.386 C 1255.780 122.174,1254.349 118.053,1250.826 116.076 C 1248.330 114.675,1247.386 114.896,1234.339 119.943 C 1203.664 131.809,1158.539 154.001,1129.094 171.702 C 1106.281 185.416,1076.639 205.568,1050.371 225.222 C 924.910 319.093,885.044 347.704,859.292 362.356 C 848.618 368.429,835.730 373.580,835.178 371.994 C 834.609 370.359,840.455 362.800,866.239 331.830 C 920.972 266.089,935.130 246.825,935.367 237.774 C 935.497 232.828,931.681 229.000,926.622 229.000 C 919.107 229.000,900.350 240.087,850.488 274.000 C 812.953 299.529,776.080 323.413,775.342 322.675 C 774.317 321.650,791.945 302.104,817.402 276.042 C 850.156 242.509,854.000 238.051,854.000 233.603 C 854.000 229.556,851.092 226.667,847.017 226.667 C 843.015 226.667,835.337 231.896,799.678 258.909 C 734.398 308.361,670.285 351.561,643.649 364.043 C 633.937 368.594,623.209 371.678,620.588 370.672 C 619.196 370.138,618.944 369.360,619.475 367.243 C 619.853 365.736,620.238 364.465,620.331 364.416 C 622.971 363.045,647.391 346.449,658.500 338.477 C 697.860 310.229,748.532 268.086,767.306 247.986 C 782.852 231.342,791.635 216.114,792.744 203.883 C 793.213 198.718,793.015 197.924,790.677 195.586 C 785.603 190.512,783.815 191.280,756.928 210.088 C 743.493 219.486,730.475 228.802,728.000 230.789 C 707.573 247.191,694.144 259.262,667.229 285.408 C 658.661 293.732,634.667 319.733,626.540 329.500 C 622.879 333.900,617.371 341.446,614.300 346.268 C 609.173 354.321,608.054 355.435,600.608 359.908 C 576.479 374.402,545.000 388.233,545.000 384.339 C 545.000 381.878,559.042 366.085,576.721 348.663 C 603.685 322.091,610.461 316.105,657.796 277.039 C 671.410 265.804,672.941 263.735,670.857 259.387 C 669.029 255.573,665.157 254.278,660.877 256.051 C 653.231 259.218,615.126 286.351,577.620 315.336 C 519.880 359.958,478.569 385.852,449.824 395.440 C 441.037 398.370,433.257 398.834,432.355 396.482 C 431.492 394.235,433.717 386.359,437.244 379.175 C 440.224 373.103,440.892 372.483,453.924 363.690 C 471.507 351.827,500.435 330.042,515.564 317.270 C 530.195 304.919,551.703 283.100,559.204 273.000 C 565.076 265.093,579.347 241.742,581.646 236.282 C 583.578 231.692,583.328 227.328,581.000 225.000 C 576.962 220.962,574.329 222.137,554.836 236.672 C 544.751 244.192,533.125 253.253,529.000 256.808 C 515.421 268.510,483.035 300.230,469.144 315.434 C 461.640 323.647,454.664 331.233,453.643 332.291 C 450.126 335.933,439.243 349.752,435.183 355.731 C 430.439 362.716,422.906 367.839,403.000 377.612 C 374.370 391.670,346.532 399.970,327.932 399.994 C 318.731 400.006,310.000 395.825,310.000 391.408 C 310.000 390.777,315.962 386.973,323.250 382.954 C 344.054 371.481,362.546 360.024,388.500 342.526 C 454.474 298.050,486.139 271.294,511.614 238.500 C 524.148 222.365,527.099 217.683,527.739 212.910 C 528.154 209.818,527.787 208.696,525.667 206.576 C 524.250 205.159,521.971 204.000,520.602 204.000 C 518.257 204.000,468.722 223.024,461.954 226.524 C 457.701 228.723,457.219 227.778,460.256 223.190 C 468.226 211.146,473.743 195.804,472.503 189.130 C 470.883 180.404,463.977 173.719,455.229 172.407 C 446.961 171.167,429.129 172.650,418.550 175.457 C 388.927 183.318,346.262 205.997,304.900 235.872 C 300.651 238.940,303.493 235.885,311.750 228.505 C 339.427 203.769,379.808 165.870,396.637 148.835 C 441.509 103.413,464.829 66.841,462.672 45.272 C 462.042 38.969,457.754 30.677,453.412 27.365 C 448.376 23.524,438.923 20.178,429.916 19.049 C 425.316 18.472,421.541 18.058,421.526 18.130 C 421.512 18.201,418.285 18.634,414.356 19.092 M439.311 35.285 C 449.030 39.734,451.073 46.275,446.724 59.016 C 441.203 75.189,423.206 100.497,398.000 127.531 C 383.801 142.761,339.976 184.856,322.034 200.500 C 318.880 203.250,308.019 212.941,297.900 222.036 C 287.780 231.130,272.075 244.835,263.000 252.491 C 236.777 274.614,220.293 289.864,218.485 293.673 C 217.111 296.567,217.034 297.668,218.035 300.084 C 218.699 301.688,219.526 303.007,219.871 303.015 C 220.217 303.024,221.146 303.439,221.936 303.939 C 223.073 304.659,222.090 306.218,217.203 311.442 C 207.591 321.717,188.039 346.747,184.034 353.905 C 183.548 354.773,182.872 355.205,182.531 354.865 C 181.303 353.637,140.988 248.056,137.033 235.711 C 135.621 231.305,134.542 233.083,148.390 217.000 C 173.617 187.699,208.608 153.506,241.500 126.012 C 291.291 84.392,366.454 42.787,408.500 33.572 C 418.982 31.275,432.151 32.007,439.311 35.285 M456.000 187.369 C 462.898 190.530,456.765 205.663,439.273 228.641 C 429.522 241.451,423.634 247.331,414.278 253.606 C 376.750 278.776,335.953 313.908,318.105 336.427 C 311.773 344.417,305.736 349.216,277.000 369.109 C 255.956 383.676,208.736 413.000,206.322 413.000 C 205.713 413.000,204.987 412.438,204.710 411.750 C 204.433 411.063,200.753 402.002,196.531 391.615 L 188.856 372.730 194.095 364.115 C 206.845 343.150,233.303 312.633,256.500 292.136 C 303.474 250.631,360.592 212.512,399.743 196.542 C 423.791 186.733,446.521 183.027,456.000 187.369 M773.398 218.250 C 767.194 230.447,735.680 260.670,696.099 292.381 C 673.681 310.342,644.083 332.417,643.373 331.706 C 642.565 330.898,666.485 305.642,686.380 286.296 C 707.249 266.002,725.573 249.860,738.500 240.381 C 756.359 227.286,773.482 215.180,774.276 215.089 C 774.702 215.040,774.307 216.463,773.398 218.250 M497.134 234.750 C 487.617 246.360,467.146 266.670,454.187 277.360 C 433.850 294.136,402.274 317.003,371.425 337.298 C 346.407 353.757,313.613 373.338,313.190 372.071 C 312.758 370.774,319.329 358.292,322.252 354.859 C 323.488 353.406,332.150 346.436,341.500 339.371 C 371.519 316.686,399.917 292.030,421.500 269.914 C 433.772 257.340,440.609 252.297,456.049 244.432 C 463.976 240.395,501.603 225.123,503.814 225.046 C 504.536 225.021,501.531 229.387,497.134 234.750 M141.214 286.765 C 165.182 349.217,173.000 370.081,173.000 371.594 C 173.000 372.404,171.810 375.414,170.356 378.283 C 163.603 391.606,160.511 406.851,162.992 414.587 C 164.720 419.973,168.545 424.816,172.599 426.749 C 174.470 427.641,176.000 428.678,176.000 429.055 C 176.000 429.984,151.139 441.250,137.200 446.637 C 125.588 451.125,100.765 459.064,100.162 458.483 C 99.976 458.304,100.695 456.884,101.759 455.329 C 103.612 452.621,103.661 451.240,102.901 423.000 C 102.181 396.192,100.913 366.026,99.394 339.500 L 98.821 329.500 102.161 328.000 C 104.722 326.850,105.663 325.684,106.200 323.000 C 106.584 321.075,107.869 314.325,109.055 308.000 C 111.063 297.285,125.567 250.982,126.904 251.015 C 127.232 251.023,133.671 267.110,141.214 286.765 M554.000 255.763 C 554.000 257.453,546.802 267.037,538.699 276.136 C 526.470 289.867,503.247 310.311,478.189 329.402 C 474.718 332.047,471.625 333.959,471.317 333.650 C 470.428 332.761,528.482 275.243,539.000 266.592 C 544.225 262.295,549.400 257.965,550.500 256.972 C 552.667 255.015,554.000 254.554,554.000 255.763 M101.195 283.489 C 97.745 294.738,97.218 295.839,96.646 292.982 C 95.094 285.221,95.823 281.662,100.181 275.725 C 102.481 272.593,104.528 270.195,104.731 270.397 C 104.933 270.599,103.342 276.491,101.195 283.489 M85.002 333.139 C 86.948 365.412,88.825 411.962,89.255 438.647 C 89.470 451.931,89.734 454.053,91.405 455.897 C 92.453 457.054,93.915 458.000,94.655 458.000 C 95.395 458.000,96.000 458.402,96.000 458.893 C 96.000 461.486,68.978 463.846,59.852 462.051 C 47.573 459.635,41.158 454.762,36.090 444.000 C 33.630 438.776,33.500 437.671,33.500 422.000 C 33.500 407.066,33.772 404.456,36.365 394.500 C 42.756 369.959,56.770 340.129,75.761 310.639 C 79.254 305.216,82.337 301.003,82.611 301.278 C 82.886 301.553,83.962 315.890,85.002 333.139 M297.666 373.429 C 297.364 374.215,296.812 376.486,296.439 378.475 C 295.847 381.630,295.041 382.454,290.130 384.922 C 281.243 389.388,258.817 399.150,258.400 398.733 C 258.192 398.525,264.205 394.213,271.761 389.149 C 279.317 384.085,287.975 378.201,291.000 376.074 C 297.017 371.841,298.501 371.252,297.666 373.429 M186.621 403.714 C 189.568 410.746,191.984 416.668,191.990 416.874 C 191.995 417.079,189.449 417.036,186.331 416.778 C 179.309 416.195,176.000 413.079,176.000 407.050 C 176.000 402.886,179.786 389.452,180.701 390.368 C 181.010 390.676,183.674 396.682,186.621 403.714 " stroke="none" fill="black" fill-rule="evenodd"/></svg>